<svg xmlns="http://www.w3.org/2000/svg" xmlns:svg="http://www.w3.org/2000/svg" xmlns:xlink="http://www.w3.org/1999/xlink" id="svg1963" width="256" height="256" version="1.1" viewBox="0 0 67.733 67.733"><title id="title876">Doughnut</title><defs id="defs1957"><linearGradient id="linearGradient6557"><stop style="stop-color:#e69a5a;stop-opacity:1" id="stop6559" offset="0"/><stop style="stop-color:#f8bd58;stop-opacity:1" id="stop6561" offset="1"/></linearGradient><linearGradient id="linearGradient6585"><stop style="stop-color:#ac5d2f;stop-opacity:1" id="stop6587" offset="0"/><stop id="stop6593" offset=".164" style="stop-color:#ac5e2e;stop-opacity:0"/><stop style="stop-color:#ad612c;stop-opacity:0" id="stop6595" offset=".782"/><stop style="stop-color:#ae632c;stop-opacity:1" id="stop6589" offset="1"/></linearGradient><linearGradient id="linearGradient6573"><stop style="stop-color:#a2541f;stop-opacity:1" id="stop6575" offset="0"/><stop style="stop-color:#f5b858;stop-opacity:1" id="stop6577" offset="1"/></linearGradient><filter style="color-interpolation-filters:sRGB" id="filter6657" width="1.107" height="1.219" x="-.054" y="-.11"><feGaussianBlur id="feGaussianBlur6659" stdDeviation="1.679"/></filter><linearGradient id="linearGradient6569" x1="190.136" x2="188.634" y1="121.022" y2="183.631" gradientTransform="matrix(0.43188576,0,0,0.43188576,264.76537,-76.144073)" gradientUnits="userSpaceOnUse" xlink:href="#linearGradient6557"/><linearGradient id="linearGradient6591" x1="236.134" x2="324.393" y1="85.246" y2="85.246" gradientTransform="matrix(0.43188576,0,0,0.43188576,224.75766,-46.621143)" gradientUnits="userSpaceOnUse" xlink:href="#linearGradient6585"/><linearGradient id="linearGradient7459" x1="281.436" x2="281.436" y1="82.144" y2="67.689" gradientTransform="matrix(0.43188576,0,0,0.34670454,224.17236,-40.680777)" gradientUnits="userSpaceOnUse" xlink:href="#linearGradient6573"/><linearGradient id="linearGradient6080" x1="281.436" x2="281.436" y1="82.144" y2="67.689" gradientTransform="matrix(0.43188576,0,0,0.34670454,224.17236,-40.680777)" gradientUnits="userSpaceOnUse" xlink:href="#linearGradient6573"/></defs><metadata id="metadata1960"/><g id="layer1" transform="translate(-296.57491,-93.186688)"><g id="g1231" transform="matrix(1.8139032,0,0,1.8139032,-237.85837,-139.61869)"><ellipse transform="rotate(26.904307)" style="opacity:1;fill:url(#linearGradient6569);fill-opacity:1;stroke:none;stroke-width:1.09607005;stroke-linecap:round;stroke-linejoin:round;stroke-miterlimit:4;stroke-dasharray:none;stroke-dashoffset:0;stroke-opacity:1" id="ellipse6565" cx="345.799" cy="-9.805" rx="19.059" ry="13.82"/><ellipse id="ellipse6583" cx="345.799" cy="-9.805" rx="19.059" ry="13.82" transform="rotate(26.904307)" style="opacity:.5;fill:url(#linearGradient6591);fill-opacity:1;stroke:none;stroke-width:1.09607005;stroke-linecap:round;stroke-linejoin:round;stroke-miterlimit:4;stroke-dasharray:none;stroke-dashoffset:0;stroke-opacity:1"/><path id="path6555" d="m 319.41094,135.23522 c -9.11497,-4.62518 -18.54933,-4.34392 -21.072,0.6282 -0.21253,0.43241 -0.36831,0.89265 -0.46613,1.3772 -0.49709,0.72126 -1.09312,1.69553 -1.20196,2.43214 -0.10662,0.72159 0.11148,1.50205 0.46946,2.13759 0.26296,0.46687 0.84672,0.6763 1.16402,1.10807 0.30392,0.41357 0.49515,0.9029 0.67991,1.38172 0.35299,0.91478 0.18565,2.0715 0.8098,2.82771 0.35937,0.4354 1.05245,0.43639 1.51047,0.76644 1.09295,0.78759 1.82277,1.99889 2.87513,2.83994 0.40292,0.32202 0.88886,0.52676 1.30296,0.83426 1.56905,1.16507 2.73774,2.878 4.45379,3.81314 0.50386,0.27455 1.08054,0.41972 1.64979,0.49188 0.52421,0.0665 1.0629,-0.14631 1.58402,-0.0589 0.50868,0.0853 1.1119,0.16318 1.44266,0.55894 0.37527,0.44899 0.26385,1.14279 0.33422,1.72371 0.0498,0.41078 -0.25905,0.97812 0.0613,1.23999 0.34181,0.27941 0.97383,0.0879 1.30906,-0.19935 0.23705,-0.20315 0.19946,-0.59183 0.28106,-0.89316 0.0553,-0.20426 -0.003,-0.46268 0.14098,-0.61898 0.19573,-0.21444 0.53998,-0.2322 0.82778,-0.27048 1.00211,-0.1333 2.01858,0.16511 3.02946,0.15525 0.59851,-0.006 1.19814,-0.0434 1.79078,-0.12709 1.69842,-0.23995 3.44098,-0.43351 5.0331,-1.07175 1.00494,-0.40284 1.43213,-1.61552 1.91303,-1.83138 0.4809,-0.21586 0.5128,-0.0412 0.5128,-0.0412 0.63859,-0.52375 1.14172,-1.13686 1.49942,-1.82717 2.52307,-4.97172 -2.82035,-12.75149 -11.93494,-17.3767 z" style="opacity:1;fill:#f6b4d2;fill-opacity:1;stroke:none;stroke-width:1.09607005;stroke-linecap:round;stroke-linejoin:round;stroke-miterlimit:4;stroke-dasharray:none;stroke-dashoffset:0;stroke-opacity:1"/><ellipse id="ellipse6581" cx="345.447" cy="-15.277" rx="6.996" ry="2.709" transform="rotate(26.904307)" style="opacity:1;fill:#f378af;fill-opacity:1;stroke:none;stroke-width:1.09607005;stroke-linecap:round;stroke-linejoin:round;stroke-miterlimit:4;stroke-dasharray:none;stroke-dashoffset:0;stroke-opacity:1"/><ellipse transform="rotate(26.904307)" style="opacity:1;fill:url(#linearGradient6080);fill-opacity:1;stroke:none;stroke-width:1.09607005;stroke-linecap:round;stroke-linejoin:round;stroke-miterlimit:4;stroke-dasharray:none;stroke-dashoffset:0;stroke-opacity:1" id="ellipse6571" cx="345.447" cy="-14.914" rx="6.996" ry="2.382"/><ellipse transform="rotate(26.904307)" style="opacity:1;fill:#f378af;fill-opacity:1;stroke:none;stroke-width:1.09607005;stroke-linecap:round;stroke-linejoin:round;stroke-miterlimit:4;stroke-dasharray:none;stroke-dashoffset:0;stroke-opacity:1" id="ellipse6597" cx="345.447" cy="-15.277" rx="6.996" ry="2.709"/><ellipse id="ellipse6599" cx="345.447" cy="-14.914" rx="6.996" ry="2.382" transform="rotate(26.904307)" style="opacity:1;fill:url(#linearGradient7459);fill-opacity:1;stroke:none;stroke-width:1.09607005;stroke-linecap:round;stroke-linejoin:round;stroke-miterlimit:4;stroke-dasharray:none;stroke-dashoffset:0;stroke-opacity:1"/><path id="ellipse6606" d="m 279.14062,57.572266 c -13.06611,0.605928 -29.79801,3.219724 -35.87695,16.566406 -0.60293,10.676498 11.61784,15.966125 20.31445,17.880859 18.24729,4.593254 40.58325,3.215787 53.9043,-11.601562 3.70698,-8.487594 -4.98749,-16.553946 -12.6875,-18.482422 -8.0688,-3.42142 -16.95248,-4.466554 -25.6543,-4.363281 z m 1.85157,3.769531 c 7.87831,-0.201063 19.06215,2.779641 19.54101,12.251953 -2.50408,9.994714 -15.03693,10.595338 -23.45508,10.212891 -7.66642,0.584005 -19.15692,-3.010476 -18.46289,-12.433594 2.42124,-9.63426 14.43224,-9.808073 22.37696,-10.03125 z" transform="matrix(0.38513995,0.19542905,-0.19542905,0.38513995,221.52683,60.128198)" style="opacity:1;fill:#f9cee1;fill-opacity:1;stroke:none;stroke-width:4;stroke-linecap:round;stroke-linejoin:round;stroke-miterlimit:4;stroke-dasharray:none;stroke-dashoffset:0;stroke-opacity:1;filter:url(#filter6657)"/><rect transform="rotate(26.904307)" style="opacity:1;fill:#36acdb;fill-opacity:1;stroke:none;stroke-width:1.09607005;stroke-linecap:round;stroke-linejoin:round;stroke-miterlimit:4;stroke-dasharray:none;stroke-dashoffset:0;stroke-opacity:1" id="rect7328" width=".666" height="2.295" x="335.384" y="-17.865" ry=".333"/><rect transform="rotate(123.91951)" style="opacity:1;fill:#36acdb;fill-opacity:1;stroke:none;stroke-width:1.09607005;stroke-linecap:round;stroke-linejoin:round;stroke-miterlimit:4;stroke-dasharray:none;stroke-dashoffset:0;stroke-opacity:1" id="rect7336" width=".666" height="2.295" x="-53.844" y="-330.297" ry=".333"/><rect transform="rotate(138.80787)" style="opacity:1;fill:#36acdb;fill-opacity:1;stroke:none;stroke-width:1.09607005;stroke-linecap:round;stroke-linejoin:round;stroke-miterlimit:4;stroke-dasharray:none;stroke-dashoffset:0;stroke-opacity:1" id="rect7338" width=".666" height="2.295" x="-139.106" y="-311.61" ry=".333"/><rect transform="rotate(88.12998)" style="opacity:1;fill:#36acdb;fill-opacity:1;stroke:none;stroke-width:1.09607005;stroke-linecap:round;stroke-linejoin:round;stroke-miterlimit:4;stroke-dasharray:none;stroke-dashoffset:0;stroke-opacity:1" id="rect7340" width=".666" height="2.295" x="151.965" y="-321.893" ry=".333"/><rect transform="rotate(10.972187)" style="opacity:1;fill:#36acdb;fill-opacity:1;stroke:none;stroke-width:1.09607005;stroke-linecap:round;stroke-linejoin:round;stroke-miterlimit:4;stroke-dasharray:none;stroke-dashoffset:0;stroke-opacity:1" id="rect7342" width=".666" height="2.295" x="336.522" y="74.5" ry=".333"/><rect transform="rotate(-12.193889)" style="opacity:1;fill:#36acdb;fill-opacity:1;stroke:none;stroke-width:1.09607005;stroke-linecap:round;stroke-linejoin:round;stroke-miterlimit:4;stroke-dasharray:none;stroke-dashoffset:0;stroke-opacity:1" id="rect7344" width=".666" height="2.295" x="268.774" y="210.112" ry=".333"/><rect transform="rotate(130.39943)" style="opacity:1;fill:#36acdb;fill-opacity:1;stroke:none;stroke-width:1.09607005;stroke-linecap:round;stroke-linejoin:round;stroke-miterlimit:4;stroke-dasharray:none;stroke-dashoffset:0;stroke-opacity:1" id="rect7346" width=".666" height="2.295" x="-92.339" y="-347.142" ry=".333"/><rect transform="rotate(-39.044865)" style="opacity:1;fill:#36acdb;fill-opacity:1;stroke:none;stroke-width:1.09607005;stroke-linecap:round;stroke-linejoin:round;stroke-miterlimit:4;stroke-dasharray:none;stroke-dashoffset:0;stroke-opacity:1" id="rect7348" width=".666" height="2.295" x="164.233" y="309.759" ry=".333"/><rect transform="rotate(143.63545)" style="opacity:1;fill:#36acdb;fill-opacity:1;stroke:none;stroke-width:1.09607005;stroke-linecap:round;stroke-linejoin:round;stroke-miterlimit:4;stroke-dasharray:none;stroke-dashoffset:0;stroke-opacity:1" id="rect7350" width=".666" height="2.295" x="-178.067" y="-317.911" ry=".333"/><rect transform="rotate(112.70365)" style="opacity:1;fill:#36acdb;fill-opacity:1;stroke:none;stroke-width:1.09607005;stroke-linecap:round;stroke-linejoin:round;stroke-miterlimit:4;stroke-dasharray:none;stroke-dashoffset:0;stroke-opacity:1" id="rect7356" width=".666" height="2.295" x="15.37" y="-336.922" ry=".333"/><rect transform="rotate(115.31705)" style="opacity:1;fill:#36acdb;fill-opacity:1;stroke:none;stroke-width:1.09607005;stroke-linecap:round;stroke-linejoin:round;stroke-miterlimit:4;stroke-dasharray:none;stroke-dashoffset:0;stroke-opacity:1" id="rect7358" width=".666" height="2.295" x=".101" y="-348.684" ry=".333"/><rect transform="rotate(-79.523648)" style="opacity:1;fill:#36acdb;fill-opacity:1;stroke:none;stroke-width:1.09607005;stroke-linecap:round;stroke-linejoin:round;stroke-miterlimit:4;stroke-dasharray:none;stroke-dashoffset:0;stroke-opacity:1" id="rect7360" width=".666" height="2.295" x="-89.185" y="336.428" ry=".333"/><rect transform="rotate(95.338363)" style="opacity:1;fill:#36acdb;fill-opacity:1;stroke:none;stroke-width:1.09607005;stroke-linecap:round;stroke-linejoin:round;stroke-miterlimit:4;stroke-dasharray:none;stroke-dashoffset:0;stroke-opacity:1" id="rect7362" width=".666" height="2.295" x="121.405" y="-334.421" ry=".333"/><rect id="rect7364" width=".666" height="2.295" x="332.441" y="1.367" ry=".333" transform="rotate(23.630822)" style="opacity:1;fill:#e06d81;fill-opacity:1;stroke:none;stroke-width:1.09607005;stroke-linecap:round;stroke-linejoin:round;stroke-miterlimit:4;stroke-dasharray:none;stroke-dashoffset:0;stroke-opacity:1"/><rect id="rect7366" width=".666" height="2.295" x="122.456" y="335.105" ry=".333" transform="rotate(-45.810462)" style="opacity:1;fill:#e06d81;fill-opacity:1;stroke:none;stroke-width:1.09607005;stroke-linecap:round;stroke-linejoin:round;stroke-miterlimit:4;stroke-dasharray:none;stroke-dashoffset:0;stroke-opacity:1"/><rect id="rect7368" width=".666" height="2.295" x="162.328" y="-314.85" ry=".333" transform="rotate(87.361456)" style="opacity:1;fill:#e06d81;fill-opacity:1;stroke:none;stroke-width:1.09607005;stroke-linecap:round;stroke-linejoin:round;stroke-miterlimit:4;stroke-dasharray:none;stroke-dashoffset:0;stroke-opacity:1"/><rect id="rect7370" width=".666" height="2.295" x="291.201" y="191.465" ry=".333" transform="rotate(-8.0149164)" style="opacity:1;fill:#e06d81;fill-opacity:1;stroke:none;stroke-width:1.09607005;stroke-linecap:round;stroke-linejoin:round;stroke-miterlimit:4;stroke-dasharray:none;stroke-dashoffset:0;stroke-opacity:1"/><rect id="rect7372" width=".666" height="2.295" x="155.48" y="303.58" ry=".333" transform="rotate(-37.15291)" style="opacity:1;fill:#e06d81;fill-opacity:1;stroke:none;stroke-width:1.09607005;stroke-linecap:round;stroke-linejoin:round;stroke-miterlimit:4;stroke-dasharray:none;stroke-dashoffset:0;stroke-opacity:1"/><rect id="rect7374" width=".666" height="2.295" x="-81.58" y="328.594" ry=".333" transform="rotate(-78.773509)" style="opacity:1;fill:#e06d81;fill-opacity:1;stroke:none;stroke-width:1.09607005;stroke-linecap:round;stroke-linejoin:round;stroke-miterlimit:4;stroke-dasharray:none;stroke-dashoffset:0;stroke-opacity:1"/><rect id="rect7376" width=".666" height="2.295" x="259.431" y="-209.185" ry=".333" transform="rotate(63.434163)" style="opacity:1;fill:#e06d81;fill-opacity:1;stroke:none;stroke-width:1.09607005;stroke-linecap:round;stroke-linejoin:round;stroke-miterlimit:4;stroke-dasharray:none;stroke-dashoffset:0;stroke-opacity:1"/><rect id="rect7378" width=".666" height="2.295" x="-28.291" y="-341.681" ry=".333" transform="rotate(118.04399)" style="opacity:1;fill:#e06d81;fill-opacity:1;stroke:none;stroke-width:1.09607005;stroke-linecap:round;stroke-linejoin:round;stroke-miterlimit:4;stroke-dasharray:none;stroke-dashoffset:0;stroke-opacity:1"/><rect transform="rotate(-90.313134)" style="opacity:1;fill:#f55;fill-opacity:1;stroke:none;stroke-width:1.09607005;stroke-linecap:round;stroke-linejoin:round;stroke-miterlimit:4;stroke-dasharray:none;stroke-dashoffset:0;stroke-opacity:1" id="rect7380" width=".666" height="2.295" x="-136.66" y="304.127" ry=".333"/><rect transform="rotate(-21.560595)" style="opacity:1;fill:#f55;fill-opacity:1;stroke:none;stroke-width:1.09607005;stroke-linecap:round;stroke-linejoin:round;stroke-miterlimit:4;stroke-dasharray:none;stroke-dashoffset:0;stroke-opacity:1" id="rect7382" width=".666" height="2.295" x="247.122" y="247.224" ry=".333"/><rect transform="rotate(-52.070579)" style="opacity:1;fill:#f55;fill-opacity:1;stroke:none;stroke-width:1.09607005;stroke-linecap:round;stroke-linejoin:round;stroke-miterlimit:4;stroke-dasharray:none;stroke-dashoffset:0;stroke-opacity:1" id="rect7384" width=".666" height="2.295" x="80.105" y="345.413" ry=".333"/><rect transform="rotate(22.823713)" style="opacity:1;fill:#f55;fill-opacity:1;stroke:none;stroke-width:1.09607005;stroke-linecap:round;stroke-linejoin:round;stroke-miterlimit:4;stroke-dasharray:none;stroke-dashoffset:0;stroke-opacity:1" id="rect7386" width=".666" height="2.295" x="359.431" y="6.682" ry=".333"/><rect transform="rotate(105.92479)" style="opacity:1;fill:#f55;fill-opacity:1;stroke:none;stroke-width:1.09607005;stroke-linecap:round;stroke-linejoin:round;stroke-miterlimit:4;stroke-dasharray:none;stroke-dashoffset:0;stroke-opacity:1" id="rect7388" width=".666" height="2.295" x="55.99" y="-341.572" ry=".333"/><rect transform="rotate(117.95223)" style="opacity:1;fill:#f55;fill-opacity:1;stroke:none;stroke-width:1.09607005;stroke-linecap:round;stroke-linejoin:round;stroke-miterlimit:4;stroke-dasharray:none;stroke-dashoffset:0;stroke-opacity:1" id="rect7390" width=".666" height="2.295" x="-16.735" y="-330.775" ry=".333"/><rect id="rect7392" width=".666" height="2.295" x="131.475" y="-334.513" ry=".333" transform="rotate(93.277745)" style="opacity:1;fill:#abc837;fill-opacity:1;stroke:none;stroke-width:1.09607005;stroke-linecap:round;stroke-linejoin:round;stroke-miterlimit:4;stroke-dasharray:none;stroke-dashoffset:0;stroke-opacity:1"/><rect id="rect7394" width=".666" height="2.295" x="44.094" y="-351.248" ry=".333" transform="rotate(106.30683)" style="opacity:1;fill:#abc837;fill-opacity:1;stroke:none;stroke-width:1.09607005;stroke-linecap:round;stroke-linejoin:round;stroke-miterlimit:4;stroke-dasharray:none;stroke-dashoffset:0;stroke-opacity:1"/><rect id="rect7396" width=".666" height="2.295" x="338.179" y="6.212" ry=".333" transform="rotate(22.448834)" style="opacity:1;fill:#abc837;fill-opacity:1;stroke:none;stroke-width:1.09607005;stroke-linecap:round;stroke-linejoin:round;stroke-miterlimit:4;stroke-dasharray:none;stroke-dashoffset:0;stroke-opacity:1"/><rect id="rect7398" width=".666" height="2.295" x="42.205" y="333.745" ry=".333" transform="rotate(-57.911357)" style="opacity:1;fill:#abc837;fill-opacity:1;stroke:none;stroke-width:1.09607005;stroke-linecap:round;stroke-linejoin:round;stroke-miterlimit:4;stroke-dasharray:none;stroke-dashoffset:0;stroke-opacity:1"/><rect transform="rotate(55.650821)" style="opacity:1;fill:#fd5;fill-opacity:1;stroke:none;stroke-width:1.09607005;stroke-linecap:round;stroke-linejoin:round;stroke-miterlimit:4;stroke-dasharray:none;stroke-dashoffset:0;stroke-opacity:1" id="rect7400" width=".666" height="2.295" x="294.805" y="-185.175" ry=".333"/><rect transform="rotate(123.50617)" style="opacity:1;fill:#fd5;fill-opacity:1;stroke:none;stroke-width:1.09607005;stroke-linecap:round;stroke-linejoin:round;stroke-miterlimit:4;stroke-dasharray:none;stroke-dashoffset:0;stroke-opacity:1" id="rect7402" width=".666" height="2.295" x="-59.289" y="-331.49" ry=".333"/><rect transform="rotate(-44.888463)" style="opacity:1;fill:#fd5;fill-opacity:1;stroke:none;stroke-width:1.09607005;stroke-linecap:round;stroke-linejoin:round;stroke-miterlimit:4;stroke-dasharray:none;stroke-dashoffset:0;stroke-opacity:1" id="rect7404" width=".666" height="2.295" x="114.482" y="311.383" ry=".333"/><rect transform="rotate(-84.323568)" style="opacity:1;fill:#fd5;fill-opacity:1;stroke:none;stroke-width:1.09607005;stroke-linecap:round;stroke-linejoin:round;stroke-miterlimit:4;stroke-dasharray:none;stroke-dashoffset:0;stroke-opacity:1" id="rect7406" width=".666" height="2.295" x="-119.923" y="325.628" ry=".333"/><rect transform="rotate(48.13031)" style="opacity:1;fill:#fd5;fill-opacity:1;stroke:none;stroke-width:1.09607005;stroke-linecap:round;stroke-linejoin:round;stroke-miterlimit:4;stroke-dasharray:none;stroke-dashoffset:0;stroke-opacity:1" id="rect7408" width=".666" height="2.295" x="327.803" y="-141.987" ry=".333"/></g></g></svg>