<svg xmlns="http://www.w3.org/2000/svg" xmlns:svg="http://www.w3.org/2000/svg" id="svg906" width="256" height="256" x="0" y="0" version="1.1" viewBox="0 0 256 256"><title id="title1281">Ginger</title><metadata id="metadata910"/><defs id="defs433"><linearGradient id="Gradient_1" x1="886.952" x2="1136.334" y1="355.202" y2="120.843" gradientUnits="userSpaceOnUse"><stop id="stop2" offset="0" stop-color="#FFFFFE"/><stop id="stop4" offset=".125" stop-color="#FFFFFE"/><stop id="stop6" offset=".25" stop-color="#FFFFFD"/><stop id="stop8" offset=".375" stop-color="#FFFEFB"/><stop id="stop10" offset=".5" stop-color="#FFFDF4"/><stop id="stop12" offset=".625" stop-color="#FCFBE8"/><stop id="stop14" offset=".75" stop-color="#F7F7D6"/><stop id="stop16" offset=".875" stop-color="#F0F2BC"/><stop id="stop18" offset="1" stop-color="#E6EA96"/></linearGradient><clipPath id="Clip_1"><path id="path21" d="m 1088.993,187.284 c 18.296,0.5 30.8,11.363 39.633,26.641 16.434,29.965 -12,52 -23,63 -11,10.996 -127.002,108.998 -143,117 -20,10 -47,-1 -58,-1 -11,0 -18,10 -27,17 -9,7.004 -30,-2 -30,-2 0,0 12,0 20,-3 8.002,-3 11,-5 13,-12 2,-7 10,-6 16,-12 6,-6 2,-7 4,-16 2.002,-9 7,-25 31,-42 24,-16.996 57,-44 78,-72 21,-27.998 50,-53 50,-53 9.441,-7.158 17.638,-10.013 29.367,-10.641 z"/></clipPath><linearGradient id="Gradient_2" x1="294.402" x2="317.553" y1="557.093" y2="393.879" gradientUnits="userSpaceOnUse"><stop id="stop24" offset="0" stop-color="#B96641"/><stop id="stop26" offset=".125" stop-color="#B96741"/><stop id="stop28" offset=".25" stop-color="#BA6943"/><stop id="stop30" offset=".375" stop-color="#BB6D47"/><stop id="stop32" offset=".5" stop-color="#BE754D"/><stop id="stop34" offset=".625" stop-color="#C27F56"/><stop id="stop36" offset=".75" stop-color="#C88F64"/><stop id="stop38" offset=".875" stop-color="#D1A578"/><stop id="stop40" offset="1" stop-color="#DCC295"/></linearGradient><linearGradient id="Gradient_3" x1="294.402" x2="292.116" y1="557.093" y2="573.213" gradientUnits="userSpaceOnUse"><stop id="stop43" offset="0" stop-color="#B96641"/><stop id="stop45" offset=".125" stop-color="#BC7149"/><stop id="stop47" offset=".25" stop-color="#C17B52"/><stop id="stop49" offset=".375" stop-color="#C4855B"/><stop id="stop51" offset=".5" stop-color="#C99065"/><stop id="stop53" offset=".625" stop-color="#CD9C70"/><stop id="stop55" offset=".75" stop-color="#D2A87C"/><stop id="stop57" offset=".875" stop-color="#D6B587"/><stop id="stop59" offset="1" stop-color="#DCC295"/></linearGradient><clipPath id="Clip_2"><path id="path62" d="m 234.418,422.044 0.351,0.235 c 1.906,1.906 2.543,5.09 2.543,5.09 l 6.996,-4.453 c 0,0 -3.818,6.996 -3.818,13.988 2.545,-2.543 13.992,-9.535 13.992,-9.535 0,0 -13.354,17.803 -4.453,30.523 13.357,10.176 42.388,25.445 43.244,48.967 1.273,34.974 -20.985,57.232 -66.774,54.689 -31.795,-2.543 -62.32,-17.171 -61.046,-59.142 1.906,-20.987 20.347,-37.522 40.062,-43.242 14.625,-6.996 22.893,-17.17 15.899,-28.617 -5.088,-6.997 -5.088,-6.997 -5.088,-6.997 0,0 9.539,-3.177 13.99,8.905 0.93,-2.566 1.414,-5.263 2.261,-7.856 0.431,-1.319 0.606,-2.192 1.841,-2.555 z"/></clipPath><linearGradient id="Gradient_4" x1="631.866" x2="612.231" y1="747.322" y2="791.828" gradientUnits="userSpaceOnUse"><stop id="stop65" offset="0" stop-color="#97CB93"/><stop id="stop67" offset=".125" stop-color="#97CB93"/><stop id="stop69" offset=".25" stop-color="#96CB92"/><stop id="stop71" offset=".375" stop-color="#94CA91"/><stop id="stop73" offset=".5" stop-color="#91C88E"/><stop id="stop75" offset=".625" stop-color="#8BC589"/><stop id="stop77" offset=".75" stop-color="#82C283"/><stop id="stop79" offset=".875" stop-color="#75BD79"/><stop id="stop81" offset="1" stop-color="#64B76C"/></linearGradient><clipPath id="Clip_3"><path id="path84" d="m 664.912,756.02 c 2.595,0.085 5.144,0.593 7.686,1.079 13.5,0.75 24,21 24,21 -36,73.5 -66.75,36 -72,19.5 -5.25,-16.5 0,-23.25 0.75,-27.75 0.75,-4.5 12,-9 21,-9 9,0 9,1.5 12,-1.5 2.288,-2.583 3.192,-3.16 6.564,-3.329 z"/></clipPath><linearGradient id="Gradient_5" x1="589.072" x2="544.073" y1="733.219" y2="835.217" gradientUnits="userSpaceOnUse"><stop id="stop87" offset="0" stop-color="#97CB93"/><stop id="stop89" offset=".125" stop-color="#97CB93"/><stop id="stop91" offset=".25" stop-color="#96CB92"/><stop id="stop93" offset=".375" stop-color="#94CA91"/><stop id="stop95" offset=".5" stop-color="#91C88E"/><stop id="stop97" offset=".625" stop-color="#8BC589"/><stop id="stop99" offset=".75" stop-color="#82C283"/><stop id="stop101" offset=".875" stop-color="#75BD79"/><stop id="stop103" offset="1" stop-color="#64B76C"/></linearGradient><clipPath id="Clip_4"><path id="path106" d="m 616.011,726.686 c 1.328,0.31 2.43,0.902 3.337,1.913 0,0 1.5,9 3.75,14.25 2.25,5.25 2.25,11.25 1.5,17.25 -0.75,6 -2.25,11.25 0,14.25 2.25,3 3,2.25 5.25,8.25 2.25,6 0.75,7.5 2.25,12 1.5,4.5 3,2.25 9,5.25 6,3 0.75,3 -0.75,8.25 -1.5,5.25 -1.5,6 -1.5,6 0,0 9,-3.75 15,-6 6,-2.25 3,-3 6,-10.5 3,-7.5 8.25,-3 18.75,-5.25 10.5,-2.25 7.5,-3.75 10.5,-8.25 3,-4.5 5.25,-4.5 11.25,-5.25 6,-0.75 5.25,-4.5 6.75,-8.25 1.5,-3.75 1.5,-4.5 4.5,-4.5 23.25,18.75 17.25,64.5 17.25,64.5 -0.75,34.5 -74.25,57.75 -112.5,64.5 -38.25,6.75 -42.75,-86.25 -42,-105.75 0.75,-19.5 12.75,-33 17.25,-39 4.5,-6 15.75,-13.5 19.5,-20.25 0.831,-1.435 1.89,-2.87 3.575,-3.339 0.43,-0.12 0.892,-0.05 1.338,-0.074 z"/></clipPath><linearGradient id="Gradient_6" x1="415.579" x2="458.446" y1="970.388" y2="844.794" gradientUnits="userSpaceOnUse"><stop id="stop109" offset="0" stop-color="#FFFFFE"/><stop id="stop111" offset=".125" stop-color="#EBF4E4"/><stop id="stop113" offset=".25" stop-color="#D7EACF"/><stop id="stop115" offset=".375" stop-color="#C6E0BC"/><stop id="stop117" offset=".5" stop-color="#B1D7A9"/><stop id="stop119" offset=".625" stop-color="#9DCE99"/><stop id="stop121" offset=".75" stop-color="#8BC589"/><stop id="stop123" offset=".875" stop-color="#78BE7B"/><stop id="stop125" offset="1" stop-color="#64B76C"/></linearGradient><clipPath id="Clip_5"><path id="path128" d="m 531.889,745.861 c 1.635,0.918 1.032,0.363 1.959,1.488 3,4.5 0.75,8.25 6,7.5 5.25,-0.75 13.5,-6 15,-1.5 1.5,4.5 -3.75,9 0,10.5 3.75,1.5 3,0.75 8.25,0 5.25,-0.75 6,-0.75 6.75,3.75 0.75,4.5 3,4.5 6.75,4.5 3.75,0 6.75,-3 7.5,0.75 0.75,3.75 2.25,3.75 1.5,10.5 -0.75,6.75 -5.25,6.75 -0.75,6.75 4.5,0 6,-1.5 5.25,3.75 -0.75,5.25 -3,10.5 0,12.75 3,2.25 2.25,3 8.25,3.75 6,0.75 10.5,3 6.75,9 -3.75,6 -5.25,9.75 -1.5,11.25 3.75,1.5 5.25,3 5.25,7.5 0,4.5 -2.25,10.5 0.75,12.75 3,2.25 8.25,6 8.25,6 0,0 0.75,3.75 -2.25,8.25 -3,4.5 -5.25,3.75 -4.5,8.25 0.75,4.5 4.5,11.25 4.5,11.25 0,0 3,-7.5 5.25,-10.5 2.25,-3 0,-3 7.5,-4.5 7.5,-1.5 16.5,-2.25 13.5,-5.25 -3,-3 -7.5,-10.5 -3,-10.5 4.5,0 9.75,2.25 14.25,-0.75 4.5,-3 7.5,-7.5 12,-8.25 4.5,-0.75 2.25,-1.5 6.75,0 4.5,1.5 5.25,3.75 6,-0.75 0.75,-4.5 5.25,-9 7.5,-8.25 2.25,0.75 11.25,6.75 13.5,3.75 2.25,-3 1.5,-3.75 6.75,-3.75 5.25,0 5.25,-2.25 8.25,-3 3,-0.75 -0.75,-0.75 5.25,0 6,0.75 6.75,-1.5 9.75,-2.25 3,-0.75 7.5,-1.5 8.25,3.75 0.75,5.25 -0.75,13.5 5.25,9.75 6,-3.75 11.25,-9 15.75,-6 4.5,3 2.25,6.75 2.25,11.25 0,4.5 -0.75,7.5 3.75,4.5 4.5,-3 7.5,-6.75 10.5,-5.25 3,1.5 3.75,3.75 3,9.75 -0.75,6 -6,10.5 0.75,8.25 6.75,-2.25 11.25,-6.75 15.75,-6.75 4.5,0 7.5,-2.25 4.5,2.25 -3,4.5 -15.75,14.25 -27.75,21 -12,6.75 -67.5,49.5 -79.5,73.5 -12,24 -36,102 -48.75,122.25 -12.75,20.25 -50.25,53.25 -78.75,45 0,0 -1.5,11.25 -17.25,6 -15.75,-5.25 -18,-10.5 -23.25,-11.25 -5.25,-0.75 -10.5,-1.5 -13.5,-5.25 -3,-3.75 -3,-14.25 -3,-14.25 0,0 -28.5,-19.5 -16.5,-70.5 13.5,-53.25 32.25,-122.25 35.25,-141.75 3,-19.5 2.25,-39.75 -2.25,-50.25 -4.5,-10.5 -31.5,-49.5 -38.25,-54 -0.75,-3.75 -0.75,-7.5 5.25,-5.25 6,2.25 9.75,5.25 10.5,0 0.75,-5.25 -4.5,-10.5 2.25,-12.75 6.75,-2.25 17.25,-2.25 19.5,-9 1.431,-3.49 3.629,-8.642 7.765,-9.69 0.493,-0.125 1.017,-0.032 1.526,-0.048 z"/></clipPath><linearGradient id="Gradient_7" x1="74.261" x2="182.273" y1="836.119" y2="789.614" gradientUnits="userSpaceOnUse"><stop id="stop131" offset="0" stop-color="#CCE3C2"/><stop id="stop133" offset=".125" stop-color="#CBE3C2"/><stop id="stop135" offset=".25" stop-color="#CAE2C0"/><stop id="stop137" offset=".375" stop-color="#C6E0BD"/><stop id="stop139" offset=".5" stop-color="#BFDDB5"/><stop id="stop141" offset=".625" stop-color="#B1D7A9"/><stop id="stop143" offset=".75" stop-color="#9ECE9A"/><stop id="stop145" offset=".875" stop-color="#86C386"/><stop id="stop147" offset="1" stop-color="#64B76C"/></linearGradient><clipPath id="Clip_6"><path id="path150" d="m 109.113,627.603 c 26.25,3 -12,196.5 -12,196.5 0,0 -5.25,-0.75 -19.5,-2.25 -14.25,-1.5 -33,-17.25 -45,-25.5 -33.75,-36.75 -21.75,-85.5 -12.75,-105.75 21.75,-55.5 89.25,-63 89.25,-63 z"/></clipPath><linearGradient id="Gradient_8" x1="280.525" x2="151.996" y1="713.652" y2="560.319" gradientUnits="userSpaceOnUse"><stop id="stop153" offset="0" stop-color="#CCE3C2"/><stop id="stop155" offset=".125" stop-color="#CBE3C2"/><stop id="stop157" offset=".25" stop-color="#CAE2C0"/><stop id="stop159" offset=".375" stop-color="#C6E0BD"/><stop id="stop161" offset=".5" stop-color="#BFDDB5"/><stop id="stop163" offset=".625" stop-color="#B1D7A9"/><stop id="stop165" offset=".75" stop-color="#9ECE9A"/><stop id="stop167" offset=".875" stop-color="#86C386"/><stop id="stop169" offset="1" stop-color="#64B76C"/></linearGradient><clipPath id="Clip_7"><path id="path172" d="m 120.363,608.103 c 8.25,12 25.5,18 52.5,26.25 30,9.75 67.5,34.5 78.75,57 15,33 -0.75,72.75 -1.5,79.5 -0.75,6.75 -12,21 -15,28.5 -3,7.5 -12,9 -24.75,19.5 -12.75,13.5 -66,11.25 -88.5,9.75 -22.5,-1.5 -51,-12.75 -54.75,-18.75 -3.75,-6 -4.5,-19.5 -12.75,-31.5 -8.25,-12 -3.75,-24.75 0,-31.5 3.75,-6.75 3.75,-6.75 2.25,-13.5 -1.5,-6.75 -3,-11.25 0,-25.5 3,-14.25 22.5,-35.25 26.25,-48.75 3.75,-13.5 13.5,-15.75 20.25,-18.75 6.75,-3 7.34,1.74 6.75,-8.25 -0.75,-12.75 10.5,-24 10.5,-24 z"/></clipPath><linearGradient id="Gradient_9" x1="262.33" x2="218.833" y1="740.128" y2="678.632" gradientUnits="userSpaceOnUse"><stop id="stop175" offset="0" stop-color="#E1EED5"/><stop id="stop177" offset=".125" stop-color="#E1EED5"/><stop id="stop179" offset=".25" stop-color="#E0EED5"/><stop id="stop181" offset=".375" stop-color="#DFEED4"/><stop id="stop183" offset=".5" stop-color="#DEEDD3"/><stop id="stop185" offset=".625" stop-color="#DBECD0"/><stop id="stop187" offset=".75" stop-color="#D7EACD"/><stop id="stop189" offset=".875" stop-color="#D2E7C8"/><stop id="stop191" offset="1" stop-color="#CCE3C2"/></linearGradient><clipPath id="Clip_8"><path id="path194" d="m 217.283,684.854 c 2.863,1.864 4.219,8.64 4.84,11.549 1.18,5.521 1.613,11.07 1.74,16.7 0,20.25 1.5,33 9.75,36 8.25,3 11.25,-18 12,-12.75 0.75,5.25 0.75,12 0.75,12 0,0 -5.25,2.25 -6.75,10.5 -1.5,8.25 -0.75,17.25 -0.75,28.5 0,11.25 -13.5,18.75 -13.5,18.75 0,0 2.25,-6.75 4.5,-12 2.25,-5.25 0,-6 -3.75,-6.75 -3.75,-0.75 -5.25,0.75 -20.25,4.5 -15,3.75 -10.5,3.75 -17.25,2.25 -6.75,-1.5 2.25,-3 12.75,-7.5 10.5,-4.5 15.75,-6 18.75,-11.25 3,-5.25 -3,-1.5 -11.25,-0.75 -8.25,0.75 -15,-0.75 -15,-0.75 0,0 5.25,-1.5 13.5,-3.75 8.25,-2.25 16.5,1.5 16.5,-8.25 0,-9.75 -8.25,-11.25 -15.75,-14.25 -7.5,-3 -15,-1.5 -30,-1.5 -15,0 6,-6 12.75,-7.5 6.75,-1.5 24,3.75 23.25,-3 -3.75,-12.75 -26.25,-39 -26.25,-39 -8.25,-17.25 17.25,10.5 26.25,18.75 9,8.25 2.25,-18.75 2.25,-27.75 0.075,-0.812 -0.109,-1.914 0.492,-2.582 0.102,-0.114 0.285,-0.111 0.428,-0.167 z"/></clipPath><linearGradient id="Gradient_10" x1="41.997" x2="68.998" y1="728.256" y2="681.754" gradientUnits="userSpaceOnUse"><stop id="stop197" offset="0" stop-color="#E1EED5"/><stop id="stop199" offset=".125" stop-color="#E1EED5"/><stop id="stop201" offset=".25" stop-color="#E0EED5"/><stop id="stop203" offset=".375" stop-color="#DFEED4"/><stop id="stop205" offset=".5" stop-color="#DEEDD3"/><stop id="stop207" offset=".625" stop-color="#DBECD0"/><stop id="stop209" offset=".75" stop-color="#D7EACD"/><stop id="stop211" offset=".875" stop-color="#D2E7C8"/><stop id="stop213" offset="1" stop-color="#CCE3C2"/></linearGradient><clipPath id="Clip_9"><path id="path216" d="m 32.975,674.3 c 0.617,1.234 -5.151,9.141 -5.917,10.426 -0.388,0.648 -1.256,1.934 -1.195,2.877 0.75,2.25 3,0 12,-1.5 9,-1.5 6,0.75 6,0.75 0,0 -9.75,1.5 -21,10.5 -11.25,9 -9,32.25 -7.5,39 1.5,6.75 10.5,-3 16.5,-6.75 6,-3.75 2.25,8.25 -6,9.75 -8.25,1.5 -3.75,3 -9.75,8.25 -3.244,3.253 -3.096,8.037 -2.563,12.275 0.539,2.672 1.123,5.338 1.813,7.975 -0.873,-2.59 -1.473,-5.265 -1.813,-7.975 -2.876,-13.402 -4.363,-27.068 -4.187,-40.775 0.75,-23.25 15.75,-39 15.75,-39 2.58,-1.739 4.721,-5.016 7.862,-5.803 z"/></clipPath><linearGradient id="Gradient_11" x1="407.261" x2="370.58" y1="901.111" y2="1047.836" gradientUnits="userSpaceOnUse"><stop id="stop219" offset="0" stop-color="#CCE3C2"/><stop id="stop221" offset=".125" stop-color="#C6E0BC"/><stop id="stop223" offset=".25" stop-color="#BFDDB5"/><stop id="stop225" offset=".375" stop-color="#B8DAAF"/><stop id="stop227" offset=".5" stop-color="#B1D7A9"/><stop id="stop229" offset=".625" stop-color="#AAD3A3"/><stop id="stop231" offset=".75" stop-color="#A3D09E"/><stop id="stop233" offset=".875" stop-color="#9DCE98"/><stop id="stop235" offset="1" stop-color="#97CB93"/></linearGradient><clipPath id="Clip_10"><path id="path238" d="m 308.629,851.655 c 0.457,0.152 0.969,0.191 1.371,0.457 2.484,1.646 3.786,6.692 4.409,9.485 0,0 0,16.301 -1.637,19.562 8.155,18.748 29.348,27.715 45.653,43.203 17.121,17.121 14.674,62.768 14.674,62.768 -1.631,48.912 -61.139,82.334 -123.094,75.809 -61.955,-6.522 -75.809,-68.471 -80.698,-90.481 -4.894,-22.01 4.075,-39.943 14.672,-58.693 14.672,-26.899 75.811,-34.239 75.811,-34.239 0,0 11.412,-3.257 17.935,-7.334 6.522,-4.076 3.258,-4.076 4.073,-11.414 0.814,-7.335 4.078,-4.072 8.965,-1.629 4.896,2.448 4.896,1.629 11.416,0 6.523,-1.628 1.628,-5.706 5.705,-7.335 z"/></clipPath><linearGradient id="Gradient_12" x1="277.663" x2="233.416" y1="899.51" y2="1065.027" gradientUnits="userSpaceOnUse"><stop id="stop241" offset="0" stop-color="#97CB93"/><stop id="stop243" offset=".125" stop-color="#97CB93"/><stop id="stop245" offset=".25" stop-color="#97CB93"/><stop id="stop247" offset=".375" stop-color="#98CC94"/><stop id="stop249" offset=".5" stop-color="#9BCD97"/><stop id="stop251" offset=".625" stop-color="#A2D09C"/><stop id="stop253" offset=".75" stop-color="#AFD6A6"/><stop id="stop255" offset=".875" stop-color="#C5DFB8"/><stop id="stop257" offset="1" stop-color="#E1EED5"/></linearGradient><clipPath id="Clip_11"><path id="path260" d="m 383.574,909.827 c 1.212,0.331 1.876,1.345 2.565,2.305 3.262,4.894 -3.261,4.894 3.262,4.894 6.524,0 17.12,2.446 17.93,7.336 0.818,4.891 -0.812,14.676 4.078,15.492 4.891,0.811 12.226,1.629 11.412,8.961 -0.814,7.34 -3.26,9.789 0.814,13.047 4.079,3.258 10.6,9.778 7.341,13.856 -3.262,4.076 -6.524,1.629 -6.524,7.334 0,5.709 -0.002,12.228 -3.262,14.674 -3.258,2.447 -4.076,2.447 -4.89,7.336 -0.815,4.89 0,8.154 -4.891,6.523 -4.89,-1.633 -5.709,-5.707 -7.338,-1.633 -1.627,4.078 -9.775,8.969 -13.853,4.895 -4.079,-4.078 -7.34,-5.711 -13.043,0 -3.004,9.926 -8.422,19.2 -15.174,27.037 -30.069,34.899 -79.054,35.321 -120.745,26.173 5.527,-0.257 11.062,-0.986 16.409,-2.446 3.107,-0.848 6.95,-2.119 8.642,-5.116 0,0 1.637,-10.597 7.34,-8.965 5.707,1.629 9.782,6.522 9.782,-1.632 0,-8.153 -2.446,-5.704 2.447,-9.778 4.887,-4.078 12.228,-7.34 14.672,-24.455 4.078,-13.863 1.629,-14.674 13.041,-13.863 11.414,0.818 2.449,-1.629 17.933,-4.076 15.491,-2.446 13.041,-5.707 21.198,-5.707 8.15,0 18.748,-2.446 20.379,-4.889 1.628,-21.193 1.628,-50.541 -22.829,-70.922 3.268,-0.81 4.893,0.818 11.415,0.818 6.521,0 8.966,-2.445 14.671,-4.076 2.348,-0.435 4.096,-2.279 6.293,-3.042 0.292,-0.101 0.617,-0.054 0.925,-0.081 z m -143.349,158.004 1.031,0.226 c -0.538,0.026 -0.826,0.049 -1.426,0.018 -0.12,-0.01 -0.328,0.055 -0.356,-0.062 -0.027,-0.108 0.206,-0.084 0.314,-0.111 0.144,-0.034 0.291,-0.047 0.437,-0.071 z"/></clipPath><linearGradient id="Gradient_13" x1="131.61" x2="87.234" y1="860.235" y2="1026.233" gradientUnits="userSpaceOnUse"><stop id="stop263" offset="0" stop-color="#97CB93"/><stop id="stop265" offset=".125" stop-color="#97CB93"/><stop id="stop267" offset=".25" stop-color="#97CB93"/><stop id="stop269" offset=".375" stop-color="#98CC94"/><stop id="stop271" offset=".5" stop-color="#9BCD97"/><stop id="stop273" offset=".625" stop-color="#A2D09C"/><stop id="stop275" offset=".75" stop-color="#AFD6A6"/><stop id="stop277" offset=".875" stop-color="#C5DFB8"/><stop id="stop279" offset="1" stop-color="#E1EED5"/></linearGradient><clipPath id="Clip_12"><path id="path282" d="m 220.661,878.714 c 10.594,0 12.225,5.707 12.225,5.707 0,0 -8.965,2.445 -18.746,7.332 -9.78,4.895 -22.825,10.601 -32.606,24.455 -14.674,25.275 -15.488,41.578 -11.41,51.357 4.074,9.782 9.779,8.153 14.672,11.418 4.89,3.258 2.443,5.704 2.443,11.407 0,5.707 3.26,3.261 5.705,7.336 2.446,4.076 0.817,4.076 0,9.781 -0.812,5.709 1.633,4.078 5.707,11.416 4.075,7.334 11.414,17.119 24.457,26.9 21.192,12.229 36.682,16.305 36.682,16.305 -52.99,17.932 -89.666,-20.383 -97.818,-34.238 -11.415,-17.934 -12.231,-54.621 -12.231,-54.621 0,0 -10.596,-3.258 -14.674,-7.332 -4.076,-4.079 -0.814,-9.782 0.819,-13.047 1.631,-3.258 -5.707,-3.258 -11.414,-5.703 -5.705,-2.444 -8.153,-10.598 -8.153,-16.305 0,-5.703 4.077,-6.52 4.077,-10.594 0,-4.074 4.892,-8.156 8.966,-10.601 4.078,-2.444 3.262,-7.333 7.336,-15.487 4.076,-8.15 9.783,-4.076 14.676,-3.258 4.887,0.819 7.332,0 13.857,-4.076 6.522,-4.078 12.225,-8.152 17.119,-8.152 z"/></clipPath><linearGradient id="Gradient_14" x1="1001.892" x2="983.891" y1="587.832" y2="649.836" gradientUnits="userSpaceOnUse"><stop id="stop285" offset="0" stop-color="#E1EED5"/><stop id="stop287" offset=".125" stop-color="#DEEDD3"/><stop id="stop289" offset=".25" stop-color="#DAEBCE"/><stop id="stop291" offset=".375" stop-color="#D3E7C7"/><stop id="stop293" offset=".5" stop-color="#CBE3BF"/><stop id="stop295" offset=".625" stop-color="#C1DDB5"/><stop id="stop297" offset=".75" stop-color="#B4D8AA"/><stop id="stop299" offset=".875" stop-color="#A5D19F"/><stop id="stop301" offset="1" stop-color="#97CB93"/></linearGradient><clipPath id="Clip_13"><path id="path304" d="m 1051.756,539.112 c 4.723,0.076 9.331,1.046 13.878,2.228 31.5,9 64.5,36.501 46,58.001 0,0 -20,3.004 -22.5,8 -2.5,5 -6.004,33.5 -6.5,36.5 -0.5,3 1.5,9.5 1.5,9.5 0,0 1,2.996 -2.5,5.5 -3.5,2.5 -2.5,-0.996 -7.5,4 -5,5 -24,14.496 -39,-4 -7.5,-7.5 -8.5,-12.5 -7,-14.5 1.5,-2 12.996,-25.5 15.5,-33 2.5,-7.5 0.5,-17 -5.5,-27 -6,-10 -16.999,-20.502 -20.5,-26.001 -1.442,-3.378 1.977,-7.072 4.234,-9.182 8.147,-7.62 19.101,-9.851 29.888,-10.046 z"/></clipPath><linearGradient id="Gradient_15" x1="1203.646" x2="1206.495" y1="663.528" y2="797.41" gradientUnits="userSpaceOnUse"><stop id="stop307" offset="0" stop-color="#15A748"/><stop id="stop309" offset=".125" stop-color="#03A448"/><stop id="stop311" offset=".25" stop-color="#009F48"/><stop id="stop313" offset=".375" stop-color="#009A48"/><stop id="stop315" offset=".5" stop-color="#009547"/><stop id="stop317" offset=".625" stop-color="#009147"/><stop id="stop319" offset=".75" stop-color="#008C47"/><stop id="stop321" offset=".875" stop-color="#008747"/><stop id="stop323" offset="1" stop-color="#008347"/></linearGradient><clipPath id="Clip_14"><path id="path326" d="m 1326.802,534.057 c 9,0 21,23.25 23.25,54.75 0.75,-13.5 9.75,-18.75 13.5,-18.75 6.75,-6.75 13.5,-21.75 18.75,-21 5.25,0.75 15.75,13.5 12.75,36 3.75,-3 12,-3 15,-6 3,-3 8.25,-7.5 13.5,-2.25 5.25,5.25 4.5,24 1.5,34.5 4.5,7.5 12.75,18.75 12.75,30.75 0,12 -0.75,30 -9,42.75 -8.25,12.75 -17.25,24.75 -20.25,34.5 -3,9.75 -3.75,23.25 -15.75,29.25 -12,6 -15.75,7.5 -20.25,13.5 -4.5,6 -11.25,13.5 -18.75,15 -7.5,1.5 -21.75,6 -24,9.75 -2.25,3.75 -21,4.5 -34.5,-6 0,0 -10.5,-7.5 -14.25,-12 -3.75,-4.5 -9,-5.25 -13.5,-8.25 -4.5,-3 -6.75,-4.5 -12.75,-7.5 -6,-3 -5.25,-3.75 -9,-7.5 -3.75,-3.75 -9.75,-29.25 -15.75,-36.75 -6,-7.5 -17.25,-25.5 -18,-42 -0.75,-16.5 -7.5,-54.75 -7.5,-60.75 0,-6 1.5,-28.5 15,-24 13.5,4.5 27.75,21 31.5,25.5 1.5,-2.25 2.25,-25.5 2.25,-25.5 0,0 -3,-34.5 8.25,-37.5 11.25,-3 21,0 29.25,16.5 8.25,16.5 12.75,24 17.25,26.25 3.75,-3.75 2.25,-16.5 2.25,-22.5 0,-6 7.5,-30.75 16.5,-30.75 z"/></clipPath><linearGradient id="Gradient_16" x1="1273.052" x2="1273.052" y1="860.096" y2="924.057" gradientUnits="userSpaceOnUse"><stop id="stop329" offset="0" stop-color="#E1EED5"/><stop id="stop331" offset=".125" stop-color="#E1EED5"/><stop id="stop333" offset=".25" stop-color="#E1EED5"/><stop id="stop335" offset=".375" stop-color="#DFEAD3"/><stop id="stop337" offset=".5" stop-color="#DCE1CE"/><stop id="stop339" offset=".625" stop-color="#D4CDC2"/><stop id="stop341" offset=".75" stop-color="#C8ACB0"/><stop id="stop343" offset=".875" stop-color="#B67893"/><stop id="stop345" offset="1" stop-color="#9F236B"/></linearGradient><linearGradient id="Gradient_17" x1="1273.052" x2="1273.052" y1="860.096" y2="743.901" gradientUnits="userSpaceOnUse"><stop id="stop348" offset="0" stop-color="#E1EED5"/><stop id="stop350" offset=".125" stop-color="#E0EED5"/><stop id="stop352" offset=".25" stop-color="#DCECD1"/><stop id="stop354" offset=".375" stop-color="#D3E7C9"/><stop id="stop356" offset=".5" stop-color="#C2DEBB"/><stop id="stop358" offset=".625" stop-color="#A2D1A6"/><stop id="stop360" offset=".75" stop-color="#7AC08D"/><stop id="stop362" offset=".875" stop-color="#38AD6F"/><stop id="stop364" offset="1" stop-color="#009949"/></linearGradient><clipPath id="Clip_15"><path id="path367" d="m 1294.686,734.092 c 5.515,1.288 6.615,8.189 7.366,12.965 2.25,15.75 5.25,35.25 5.25,35.25 0,0 9.75,-1.5 9.75,-9 0,9.75 3,14.25 3,14.25 0,0 16.5,-30.75 21.75,-40.5 5.25,-9.75 15,-6 6,8.25 -9,14.25 -15,29.25 -15,29.25 0,0 6,-8.25 11.25,-8.25 0,0 -9.75,27 -6.75,42.75 3,15.75 5.25,51.75 5.25,60.75 0,9 -9.75,27.75 -23.25,33.75 0.75,4.5 0,6 -3,8.25 -3,2.25 -8.25,5.25 -15.75,-4.5 -12.75,-5.25 -25.5,-18 -25.5,-27.75 0,-9.75 9,-57.75 9,-67.5 0,-9.75 1.5,-29.25 0.75,-35.25 -0.75,-6 -5.25,-21 -5.25,-21 0,0 8.25,11.25 15.75,15 0,-13.5 -2.25,-46.5 -2.25,-46.5 0.552,-0.232 1.031,-0.19 1.634,-0.215 z"/></clipPath><linearGradient id="Gradient_18" x1="634.723" x2="593.577" y1="148.463" y2="172.218" gradientUnits="userSpaceOnUse"><stop id="stop370" offset="0" stop-color="#15A748"/><stop id="stop372" offset=".125" stop-color="#09A648"/><stop id="stop374" offset=".25" stop-color="#00A549"/><stop id="stop376" offset=".375" stop-color="#00A449"/><stop id="stop378" offset=".5" stop-color="#00A249"/><stop id="stop380" offset=".625" stop-color="#00A04A"/><stop id="stop382" offset=".75" stop-color="#009E4A"/><stop id="stop384" offset=".875" stop-color="#009B49"/><stop id="stop386" offset="1" stop-color="#009949"/></linearGradient><linearGradient id="Gradient_19" x1="634.723" x2="822.452" y1="148.462" y2="40.077" gradientUnits="userSpaceOnUse"><stop id="stop389" offset="0" stop-color="#15A748"/><stop id="stop391" offset=".125" stop-color="#15A748"/><stop id="stop393" offset=".25" stop-color="#15A748"/><stop id="stop395" offset=".375" stop-color="#14A748"/><stop id="stop397" offset=".5" stop-color="#0FA548"/><stop id="stop399" offset=".625" stop-color="#00A348"/><stop id="stop401" offset=".75" stop-color="#009D48"/><stop id="stop403" offset=".875" stop-color="#009247"/><stop id="stop405" offset="1" stop-color="#008347"/></linearGradient><clipPath id="Clip_16"><path id="path408" d="m 821.12,48.622 7.998,3 c 0,0 -7.998,10 -7.998,14.002 0,4.002 6,12.01 4,25.008 -1.254,8.154 -18,30.998 -31,45 -13,14.002 -32,27.998 -59,50.002 -27,22 -41.482,39.664 -71.5,42.496 -26.502,2.504 -18.5,0.502 -33.5,-2.498 -8.824,-1.764 -11.002,-8.002 -10,-12 1.002,-3.998 4,-6.998 10,-24 4.338,-12.295 36.998,-18.998 80,-45.998 43.002,-27 61,-62 70,-72 9,-10.004 29,-11.012 29,-11.012 0,0 9,4.008 12,-12 z"/></clipPath><linearGradient id="Gradient_20" x1="108.589" x2="89.32" y1="207.882" y2="274.253" gradientUnits="userSpaceOnUse"><stop id="stop411" offset="0" stop-color="#E1EED5"/><stop id="stop413" offset=".125" stop-color="#DEEDD3"/><stop id="stop415" offset=".25" stop-color="#DAEBCE"/><stop id="stop417" offset=".375" stop-color="#D3E7C7"/><stop id="stop419" offset=".5" stop-color="#CBE3BF"/><stop id="stop421" offset=".625" stop-color="#C1DDB5"/><stop id="stop423" offset=".75" stop-color="#B4D8AA"/><stop id="stop425" offset=".875" stop-color="#A5D19F"/><stop id="stop427" offset="1" stop-color="#97CB93"/></linearGradient><clipPath id="Clip_17"><path id="path430" d="m 176.289,164.215 c 8.785,0.021 17.598,0.327 26.326,1.389 0,0 -12,33 -18,48 -6,15 -1.5,29.25 -5.25,51.75 -3.75,22.5 -12,19.5 -27,23.25 -15,3.75 -36.75,-9 -45,-12 -8.25,-3 -6,-7.5 -6.75,-19.5 -0.75,-12 9.75,-21 17.25,-34.5 7.5,-13.5 4.5,-38.25 4.5,-38.25 7.239,-18.963 37.056,-19.727 53.924,-20.139 z"/></clipPath></defs><g id="g1522" transform="matrix(1.4910362,0,0,1.4910362,-1878.2932,-364.30089)"><g id="g857"><path id="path853" d="m 1415.458,315.029 c -5.211,3.996 -9.719,5.416 -12.867,11.322 -2.926,5.483 -2,8.982 -7.313,13.465 -7.14,6.025 -18.242,2.848 -24.91,8.412 -5.076,4.234 -3.318,11.723 -11.158,14.02 -6.807,2 -14.684,-4.325 -20.566,2.554 -2.811,3.289 -4.702,13.358 -6.764,17.68 -5.504,11.535 -1.176,21.98 -14.336,23.334 -8.859,0.912 -18.498,-0.809 -27.469,-0.588 -3.711,0.09 -10.785,1.981 -14.367,0.611 -20.578,-7.861 -13.766,-34.974 -11.91,-50.32 1.344,-11.08 1.181,-9.885 10.098,-12.978 7.103,-2.465 14.456,-4.715 21.527,-6.92 7.121,-2.225 13.73,0.398 20.484,-1.33 16.924,-4.34 1.367,-23.114 -8.492,-25.782 -4.934,-1.336 -10.141,1.375 -15.519,-0.734 -9.735,-3.817 -18.454,-23.342 -15.93,-33.445 1.89,-7.586 9.359,-13.586 16.191,-15.174 5.489,-1.276 12.441,0.152 18.18,-0.598 6.578,-0.861 13.797,-4.428 20.314,-4.564 12.858,-0.27 28.85,10.914 33.938,22.812 3.615,8.457 0.529,10.016 -2.174,17.412 -2.49,6.807 0.123,15.387 8.187,9.272 1.979,-1.496 2.821,-7.746 3.879,-10.035 3.245,-7.012 8.665,-21.198 14.207,-26.122 6.516,-5.792 15.862,0.18 24.487,1.715 2.494,0.446 13.818,0.233 15.457,2.307 1.951,2.463 -0.469,2.697 0.346,5.553 3.55,12.402 -3.516,30.447 -13.52,38.121 z" style="fill:#fbe3bc"/><path id="path855" d="m 1415.458,315.029 c -5.211,3.996 -9.719,5.416 -12.867,11.322 -2.926,5.483 -2,8.982 -7.313,13.465 -7.14,6.025 -18.242,2.848 -24.91,8.412 -5.076,4.234 -3.318,11.723 -11.158,14.02 -6.807,2 -14.684,-4.325 -20.566,2.554 -2.811,3.289 -4.702,13.358 -6.764,17.68 -5.504,11.535 -1.176,21.98 -14.336,23.334 -8.859,0.912 -18.498,-0.809 -27.469,-0.588 -3.711,0.09 -10.785,1.981 -14.367,0.611 -20.578,-7.861 -13.766,-34.974 -11.91,-50.32 1.344,-11.08 1.181,-9.885 10.098,-12.978 7.103,-2.465 14.456,-4.715 21.527,-6.92 7.121,-2.225 13.73,0.398 20.484,-1.33 16.924,-4.34 1.367,-23.114 -8.492,-25.782 -4.934,-1.336 -10.141,1.375 -15.519,-0.734 -9.735,-3.817 -18.454,-23.342 -15.93,-33.445 1.89,-7.586 9.359,-13.586 16.191,-15.174 5.489,-1.276 12.441,0.152 18.18,-0.598 6.578,-0.861 13.797,-4.428 20.314,-4.564 12.858,-0.27 28.85,10.914 33.938,22.812 3.615,8.457 0.529,10.016 -2.174,17.412 -2.49,6.807 0.123,15.387 8.187,9.272 1.979,-1.496 2.821,-7.746 3.879,-10.035 3.245,-7.012 8.665,-21.198 14.207,-26.122 6.516,-5.792 15.862,0.18 24.487,1.715 2.494,0.446 13.818,0.233 15.457,2.307 1.951,2.463 -0.469,2.697 0.346,5.553 3.55,12.402 -3.516,30.447 -13.52,38.121 z" style="fill-opacity:0;stroke:#1a1919;stroke-width:3"/></g><path id="path859" d="m 1307.384,356.095 c 2.277,1.285 5.254,3.069 7.5,4.5 m -6.75,3.75 c 0.211,0.172 8.22,6.514 9,7.5 m -36.75,-1.5 c 4.517,0.926 7.773,5.157 9,9 m 11.25,-7.5 c 4.14,5.426 10.635,11.74 12.75,18.75 m -20.25,4.5 c 0.75,0.692 1.646,1.592 2.25,2.25 m 13.5,-128.25 c 0.258,3.766 -0.803,7.692 -3.75,9.75 m 13.5,-5.25 c -0.219,6.813 -4.846,14.588 -8.25,20.25 m 20.25,-15 c 0.117,2.727 -0.75,5.705 -2.25,7.5 m 22.5,-14.25 c -0.25,5.25 -0.5,10.5 -0.75,15.75 m -4.5,17.25 c -1.164,2.617 -3.709,5.481 -6,6 m -4.5,-12.75 c -0.735,3.422 -3.205,5.576 -6.75,6 m 7.5,35.25 c 4.371,0.235 7.859,3.719 7.5,8.25 m 0.75,-12 c 5.976,-0.316 14.754,0.887 15,8.25 m 1.5,-21 c 3.75,2.25 7.5,4.5 11.25,6.75 m 9,-30.75 c 0.062,5.086 4.043,10.395 8.25,12.75 m 0.75,-19.5 c -0.387,4.758 3.146,8.203 7.5,9.75 m -3.75,-24 c 3.5,2.752 7,5.5 10.5,8.25 m 10.5,5.25 c 2,1 4,2.002 6,3 m -11.25,9.75 c 1.25,1.252 2.5,2.5 3.75,3.75 m -19.5,10.5 c 1,0.75 2,1.5 3,2.25" style="fill-opacity:0;stroke:#1a1919;stroke-width:1.5;stroke-linecap:round;stroke-linejoin:round"/></g></svg>