<svg xmlns="http://www.w3.org/2000/svg" xmlns:svg="http://www.w3.org/2000/svg" id="svg906" width="256" height="256" x="0" y="0" version="1.1" viewBox="0 0 256 256"><title id="title1988">Bell Pepper</title><metadata id="metadata910"/><g id="g1986" transform="matrix(1.0389388,0,0,1.0389388,-523.05963,-283.70551)"><g id="g453"><path id="path449" d="m 664.309,313.204 c 0,0 -4.923,-4.914 -24.588,-4.914 -19.665,0 -12.294,2.457 -25.815,1.228 -13.516,-1.228 -23.357,-2.459 -25.812,1.229 -2.455,3.687 17.208,28.273 31.962,28.273 14.749,0 23.354,6.147 44.253,-25.816 z" style="fill:#006f43"/><path id="path451" d="m 664.309,313.204 c 0,0 -4.923,-4.914 -24.588,-4.914 -19.665,0 -12.294,2.457 -25.815,1.228 -13.516,-1.228 -23.357,-2.459 -25.812,1.229 -2.455,3.687 17.208,28.273 31.962,28.273 14.749,0 23.354,6.147 44.253,-25.816 z" style="fill-opacity:0;stroke:#1a1919;stroke-width:3"/></g><g id="g459"><path id="path455" d="m 709.789,330.415 c 0,0 -9.834,-17.211 -33.189,-17.211 -23.356,0 -38.104,15.98 -38.104,15.98 0,0 23.35,36.879 71.293,1.231 z" style="fill:#006f43"/><path id="path457" d="m 709.789,330.415 c 0,0 -9.834,-17.211 -33.189,-17.211 -23.356,0 -38.104,15.98 -38.104,15.98 0,0 23.35,36.879 71.293,1.231 z" style="fill-opacity:0;stroke:#1a1919;stroke-width:3"/></g><g id="g465"><path id="path461" d="m 547.529,323.042 c 0,0 0,-6.147 17.213,-9.838 17.207,-3.686 17.207,-2.457 29.498,0 12.293,2.465 27.045,20.9 18.44,31.963 -8.606,11.062 -19.67,4.922 -65.151,-22.125 z" style="fill:#006f43"/><path id="path463" d="m 547.529,323.042 c 0,0 0,-6.147 17.213,-9.838 17.207,-3.686 17.207,-2.457 29.498,0 12.293,2.465 27.045,20.9 18.44,31.963 -8.606,11.062 -19.67,4.922 -65.151,-22.125 z" style="fill-opacity:0;stroke:#1a1919;stroke-width:3"/></g><g id="g471"><path id="path467" d="m 581.949,335.333 c 0,0 -25.812,-20.895 -44.252,-12.291 -18.439,8.603 -39.34,43.019 -30.736,67.605 8.609,24.588 19.672,55.313 27.047,67.611 7.375,12.293 9.832,28.27 15.98,36.875 6.149,8.61 19.666,11.067 38.106,4.92" style="fill:#006f43"/><path id="path469" d="m 581.949,335.333 c 0,0 -25.812,-20.895 -44.252,-12.291 -18.439,8.603 -39.34,43.019 -30.736,67.605 8.609,24.588 19.672,55.313 27.047,67.611 7.375,12.293 9.832,28.27 15.98,36.875 6.149,8.61 19.666,11.067 38.106,4.92" style="fill-opacity:0;stroke:#1a1919;stroke-width:3"/></g><g id="g477"><path id="path473" d="m 676.6,339.02 c 0,0 13.463,-7.375 25.814,-7.375 13.52,0 23.351,-1.23 33.189,14.75 9.834,15.981 19.67,35.649 6.147,63.918 -13.52,28.276 -25.816,40.568 -28.273,55.317 -2.458,14.753 -4.914,29.503 -13.52,33.191 -12.881,5.521 -22.127,6.152 -35.648,-2.457" style="fill:#006f43"/><path id="path475" d="m 676.6,339.02 c 0,0 13.463,-7.375 25.814,-7.375 13.52,0 23.351,-1.23 33.189,14.75 9.834,15.981 19.67,35.649 6.147,63.918 -13.52,28.276 -25.816,40.568 -28.273,55.317 -2.458,14.753 -4.914,29.503 -13.52,33.191 -12.881,5.521 -22.127,6.152 -35.648,-2.457" style="fill-opacity:0;stroke:#1a1919;stroke-width:3"/></g><path id="path479" d="m 546.067,345.481 c -6.914,1.296 -11.554,8.266 -11.825,14.836 -0.631,6.619 0.6,13.083 2.038,19.359 2.755,12.553 8.367,24.583 10.307,36.832 1.359,0.066 -4.357,-21.378 -8.656,-38.029 -1.892,-8.308 -3.72,-17.804 -0.977,-24.705 2.948,-7.063 9.485,-8.148 9.113,-8.293" style="fill:#ffda1a"/><path id="path481" d="m 525.851,407.156 c 10.776,16.898 14.617,37.153 20.779,56.305 -0.129,0.004 -2.984,-17.058 -7.065,-30.144 -3.847,-13.382 -13.588,-26.406 -13.714,-26.161" style="fill:#ffda1a"/><path id="path483" d="m 561.372,448.692 c 2.847,9.608 6.944,18.858 12.414,27.289 -0.017,-0.045 -2.901,-8.217 -5.586,-14.261 -2.708,-6.043 -6.791,-13.002 -6.828,-13.028" style="fill:#ffda1a"/><path id="path485" d="m 699.469,353.351 c 9.068,7.099 9.693,21.061 9.379,32.319 0.075,0.106 2.513,-10.187 0.545,-18.404 -0.883,-4.042 -2.969,-8.231 -5.329,-10.729 -2.371,-2.56 -4.656,-3.141 -4.595,-3.186" style="fill:#ffda1a"/><path id="path487" d="m 732.201,372.212 c 0.156,22.265 -2.857,46.315 -18.197,63.29 0.173,0.511 14.148,-14.039 16.925,-29.946 3.674,-15.277 1.157,-33.415 1.272,-33.344" style="fill:#ffda1a"/><path id="path489" d="m 707.644,416.251 c -4.105,17.802 -9.566,35.643 -9.861,54.289 -0.132,-0.084 2.539,-15.623 5.473,-27.626 2.699,-12.1 4.463,-26.665 4.388,-26.663" style="fill:#ffda1a"/><path id="path491" d="m 685.577,454.172 c -4.042,10.214 -2.367,20.929 -2.544,31.125 0.074,0.035 1.66,-8.874 1.738,-15.816 -0.22,-6.869 0.55,-15.193 0.806,-15.309" style="fill:#ffda1a"/><g id="g497"><path id="path493" d="m 666.768,336.559 c 0,0 -24.587,1.231 -28.272,-7.375 -3.691,-8.603 -6.148,-11.059 1.225,-20.894 7.377,-9.834 14.754,-17.211 13.523,-20.897 -1.229,-3.689 -14.748,-14.754 -22.125,-9.838 -7.377,4.922 -9.832,6.147 -12.291,22.129 -2.463,15.985 -2.463,30.731 -9.834,31.961 -7.377,1.229 -22.127,4.914 -22.127,4.914 0,0 35.648,35.649 79.901,0 z" style="fill:#fff0d4"/><path id="path495" d="m 666.768,336.559 c 0,0 -24.587,1.231 -28.272,-7.375 -3.691,-8.603 -6.148,-11.059 1.225,-20.894 7.377,-9.834 14.754,-17.211 13.523,-20.897 -1.229,-3.689 -14.748,-14.754 -22.125,-9.838 -7.377,4.922 -9.832,6.147 -12.291,22.129 -2.463,15.985 -2.463,30.731 -9.834,31.961 -7.377,1.229 -22.127,4.914 -22.127,4.914 0,0 35.648,35.649 79.901,0 z" style="fill-opacity:0;stroke:#1a1919;stroke-width:3;stroke-linecap:round;stroke-linejoin:round"/></g><g id="g503"><path id="path499" d="m 663.082,335.333 c 0,0 25.816,6.142 31.961,28.269 6.142,22.125 -3.69,39.332 -9.836,62.694 -6.148,23.357 -17.211,52.857 -17.211,66.376 0,13.524 -20.898,23.36 -36.877,23.36 -15.983,0 -23.354,1.226 -33.189,-2.457 -19.053,-7.147 -17.213,-30.735 -22.125,-49.172 -4.92,-18.438 -19.668,-81.129 -19.668,-95.881 0,-14.752 15.978,-34.42 29.502,-35.648 13.523,-1.229 33.189,14.748 47.939,11.062 14.75,-3.689 18.437,-6.142 29.504,-8.603 z" style="fill:#006f43"/><path id="path501" d="m 663.082,335.333 c 0,0 25.816,6.142 31.961,28.269 6.142,22.125 -3.69,39.332 -9.836,62.694 -6.148,23.357 -17.211,52.857 -17.211,66.376 0,13.524 -20.898,23.36 -36.877,23.36 -15.983,0 -23.354,1.226 -33.189,-2.457 -19.053,-7.147 -17.213,-30.735 -22.125,-49.172 -4.92,-18.438 -19.668,-81.129 -19.668,-95.881 0,-14.752 15.978,-34.42 29.502,-35.648 13.523,-1.229 33.189,14.748 47.939,11.062 14.75,-3.689 18.437,-6.142 29.504,-8.603 z" style="fill-opacity:0;stroke:#1a1919;stroke-width:3"/></g><path id="path505" d="m 680.063,409.031 c -0.124,-0.022 2.566,-6.002 3.972,-15.444 0.75,-4.69 0.88,-10.349 -0.394,-16.157 -1.203,-5.594 -4.853,-12.159 -10.788,-13.602 10.247,6.719 9.315,21.016 9.028,29.65 -0.668,9.229 -1.94,15.539 -1.818,15.553" style="fill:#ffda1a"/><path id="path507" d="m 589.809,367.94 c -11.685,14.3 -14.364,33.804 -11.936,51.447 2.115,17.889 7.721,35.005 10.519,52.536 0.971,-0.075 -5.482,-30.055 -8.759,-53.84 -1.5,-11.902 -0.908,-25.096 2.46,-34.701 3.211,-9.64 7.869,-15.391 7.716,-15.442" style="fill:#ffda1a"/><path id="path509" d="m 652.329,399.479 c 7.063,28.192 2.438,57.765 -4.913,85.579 -0.04,0.05 8.464,-23.481 9.806,-43.362 2.28,-19.996 -4.682,-42.449 -4.893,-42.217" style="fill:#ffda1a"/><path id="path511" d="m 614.431,362.976 c -5.446,6.574 -6.471,15.244 -6.454,23.175 0.082,8.071 1.277,16.022 2.668,23.886 2.615,15.694 7.38,31.245 7.241,46.936 -0.032,0.029 0.877,-6.671 -0.352,-16.164 -1.055,-9.458 -3.322,-21.481 -5.211,-32.067 -1.909,-10.575 -3.689,-22.133 -2.929,-31.16 0.5,-9.193 5.223,-14.598 5.037,-14.606" style="fill:#ffda1a"/><path id="path513" d="m 632.635,436.129 c 0.298,11.657 2.155,22.993 2.624,34.45 0.276,11.145 0.674,23.626 -6.08,32.537 -0.155,-0.017 3.756,-3.17 5.637,-9.948 2.051,-6.579 2.752,-15.585 2.287,-23.386 -1.061,-15.626 -4.956,-33.499 -4.468,-33.653" style="fill:#ffda1a"/><path id="path515" d="m 635.136,279.891 c 0,0 2.497,-0.414 5.821,1.664 3.328,2.076 9.57,4.988 8.736,7.485 -0.832,2.496 -4.16,2.082 -9.15,-0.415 -4.992,-2.496 -11.234,-7.484 -5.407,-8.734" style="fill:#dcc295"/></g></svg>