<svg xmlns="http://www.w3.org/2000/svg" xmlns:svg="http://www.w3.org/2000/svg" id="svg602" width="256" height="256" version="1.1"><title id="title872">Pretzel</title><metadata id="metadata3"/><defs id="defs604"><filter id="filter4410" style="color-interpolation-filters:sRGB"><feGaussianBlur id="feGaussianBlur4412" stdDeviation="3.745"/></filter></defs><g id="g4414" transform="matrix(0.54615298,0,0,0.54615298,0.24565929,1.4393904)"><g id="g614" transform="translate(-64.527782,-19.475578)"><path id="path606" d="m 512.5839,339.2224 c -3.2074,0.1919 -40.8584,-3.8389 -64.7278,-10.3943 -26.0266,-6.701 -119.4804,-38.8808 -146.3687,-66.5216 -25.7851,-25.6641 19.2197,-13.287 -12.4231,-44.8427 C 278.3275,206.7559 263.6446,191.6475 261.4514,188.507 249.7991,169.6728 245.9705,149.8244 226.929,131.7146 200.905,108.7319 165.3185,102.9903 132.7747,121.3 c -30.4955,18.3861 -54.7611,66.474 -46.71702,108.1868 8.54299,59.7648 38.96372,117.3563 64.74812,154.0843 15.4189,24.2158 37.9373,35.8265 61.7596,51.3491 50.71,30.7158 89.5959,26.852 108.7166,25.6929 19.1207,-1.0142 54.3901,-11.8832 76.1231,-28.2554 26.0245,-20.5476 47.9922,-44.138 66.0479,-72.2198 13.7969,-17.666 27.3038,-64.1644 29.9444,-99.5064 3.3613,-25.3652 11.9384,-79.2732 5.7372,-121.3003 -5.9512,-42.74787 -48.4135,-102.15759 -92.6145,-99.99084 -31.1575,3.88626 -54.7809,23.99964 -67.2482,39.7667 -15.0098,19.35928 -14.9515,69.28944 -23.7313,99.80474 -2.8661,13.4735 -17.9471,29.1937 -22.9871,39.0116 -12.5865,25.3379 10.557,23.7827 6.8597,34.9396 -6.8708,21.9695 -30.6925,80.4814 -53.9387,135.2737 -23.0769,55.3695 -40.1795,56.6893 -61.5499,73.206" style="fill:none;stroke:#794a37;stroke-width:39.59999847;stroke-linecap:round;stroke-linejoin:miter;stroke-miterlimit:4;stroke-dasharray:none;stroke-opacity:1"/><path id="path607" d="m 512.5839,339.2224 c -3.2074,0.1919 -40.8584,-3.8389 -64.7278,-10.3943 -26.0266,-6.701 -119.4804,-38.8808 -146.3687,-66.5216 -25.7851,-25.6641 19.2197,-13.287 -12.4231,-44.8427 C 278.3275,206.7559 263.6446,191.6475 261.4514,188.507 249.7991,169.6728 245.9705,149.8244 226.929,131.7146 200.905,108.7319 165.3185,102.9903 132.7747,121.3 c -30.4955,18.3861 -54.7611,66.474 -46.71702,108.1868 8.54299,59.7648 38.96372,117.3563 64.74812,154.0843 15.4189,24.2158 37.9373,35.8265 61.7596,51.3491 50.71,30.7158 89.5959,26.852 108.7166,25.6929 19.1207,-1.0142 54.3901,-11.8832 76.1231,-28.2554 26.0245,-20.5476 47.9922,-44.138 66.0479,-72.2198 13.7969,-17.666 27.3038,-64.1644 29.9444,-99.5064 3.3613,-25.3652 11.9384,-79.2732 5.7372,-121.3003 -5.9512,-42.74787 -48.4135,-102.15759 -92.6145,-99.99084 -31.1575,3.88626 -54.7809,23.99964 -67.2482,39.7667 -15.0098,19.35928 -14.9515,69.28944 -23.7313,99.80474 -2.8661,13.4735 -17.9471,29.1937 -22.9871,39.0116 -12.5865,25.3379 10.557,23.7827 6.8597,34.9396 -6.8708,21.9695 -30.6925,80.4814 -53.9387,135.2737 -23.0769,55.3695 -40.1795,56.6893 -61.5499,73.206" style="fill:none;stroke:#815738;stroke-width:33.04999924;stroke-linecap:round;stroke-linejoin:miter;stroke-miterlimit:4;stroke-dasharray:none;stroke-opacity:.98999999"/><path id="path613" d="m 512.5839,339.2224 c -3.2074,0.1919 -40.8584,-3.8389 -64.7278,-10.3943 -26.0266,-6.701 -119.4804,-38.8808 -146.3687,-66.5216 -25.7851,-25.6641 19.2197,-13.287 -12.4231,-44.8427 C 278.3275,206.7559 263.6446,191.6475 261.4514,188.507 249.7991,169.6728 245.9705,149.8244 226.929,131.7146 200.905,108.7319 165.3185,102.9903 132.7747,121.3 c -30.4955,18.3861 -54.7611,66.474 -46.71702,108.1868 8.54299,59.7648 38.96372,117.3563 64.74812,154.0843 15.4189,24.2158 37.9373,35.8265 61.7596,51.3491 50.71,30.7158 89.5959,26.852 108.7166,25.6929 19.1207,-1.0142 54.3901,-11.8832 76.1231,-28.2554 26.0245,-20.5476 47.9922,-44.138 66.0479,-72.2198 13.7969,-17.666 27.3038,-64.1644 29.9444,-99.5064 3.3613,-25.3652 11.9384,-79.2732 5.7372,-121.3003 -5.9512,-42.74787 -48.4135,-102.15759 -92.6145,-99.99084 -31.1575,3.88626 -54.7809,23.99964 -67.2482,39.7667 -15.0098,19.35928 -14.9515,69.28944 -23.7313,99.80474 -2.8661,13.4735 -17.9471,29.1937 -22.9871,39.0116 -12.5865,25.3379 10.557,23.7827 6.8597,34.9396 -6.8708,21.9695 -30.6925,80.4814 -53.9387,135.2737 -23.0769,55.3695 -40.1795,56.6893 -61.5499,73.206" style="fill:none;stroke:#8a5d3f;stroke-width:23.89999962;stroke-linecap:round;stroke-linejoin:miter;stroke-miterlimit:4;stroke-dasharray:none;stroke-opacity:.99220001"/></g><rect id="rect619" width="5.385" height="5.337" x="-21.462" y="445.527" transform="matrix(0.9703261,-0.24180003,0.2919901,0.95642134,0,0)" style="font-size:12px;fill:#d9dcd9;fill-opacity:1;fill-rule:evenodd;stroke-width:1"/><rect id="rect620" width="5.385" height="5.337" x="80.65" y="392.503" transform="matrix(0.9703261,-0.24180003,0.2919901,0.95642134,0,0)" style="font-size:12px;fill:#d9dcd9;fill-opacity:1;fill-rule:evenodd;stroke-width:1"/><rect id="rect621" width="5.385" height="5.337" x="-50.156" y="300.721" transform="matrix(0.9703261,-0.24180003,0.2919901,0.95642134,0,0)" style="font-size:12px;fill:#d9dcd9;fill-opacity:1;fill-rule:evenodd;stroke-width:1"/><rect id="rect622" width="5.385" height="5.337" x="189.314" y="493.361" transform="matrix(0.9703261,-0.24180003,0.2919901,0.95642134,0,0)" style="font-size:12px;fill:#d9dcd9;fill-opacity:1;fill-rule:evenodd;stroke-width:1"/><rect id="rect623" width="5.385" height="5.337" x="222.703" y="346.679" transform="matrix(0.9703261,-0.24180003,0.2919901,0.95642134,0,0)" style="font-size:12px;fill:#d9dcd9;fill-opacity:1;fill-rule:evenodd;stroke-width:1"/><rect id="rect624" width="5.385" height="5.337" x="170.778" y="213.573" transform="matrix(0.9703261,-0.24180003,0.2919901,0.95642134,0,0)" style="font-size:12px;fill:#d9dcd9;fill-opacity:1;fill-rule:evenodd;stroke-width:1"/><rect id="rect625" width="5.385" height="5.337" x="341.969" y="287.756" transform="matrix(0.9703261,-0.24180003,0.2919901,0.95642134,0,0)" style="font-size:12px;fill:#d9dcd9;fill-opacity:1;fill-rule:evenodd;stroke-width:1"/><rect id="rect626" width="5.385" height="5.337" x="343.462" y="403.87" transform="matrix(0.9703261,-0.24180003,0.2919901,0.95642134,0,0)" style="font-size:12px;fill:#d9dcd9;fill-opacity:1;fill-rule:evenodd;stroke-width:1"/><rect id="rect627" width="5.385" height="5.337" x="8.928" y="138.115" transform="matrix(0.9703261,-0.24180003,0.2919901,0.95642134,0,0)" style="font-size:12px;fill:#d9dcd9;fill-opacity:1;fill-rule:evenodd;stroke-width:1"/><rect id="rect628" width="5.385" height="5.337" x="109.088" y="122.838" transform="matrix(0.9703261,-0.24180003,0.2919901,0.95642134,0,0)" style="font-size:12px;fill:#d9dcd9;fill-opacity:1;fill-rule:evenodd;stroke-width:1"/><rect id="rect629" width="5.385" height="5.337" x="294.86" y="112.845" transform="matrix(0.9703261,-0.24180003,0.2919901,0.95642134,0,0)" style="font-size:12px;fill:#d9dcd9;fill-opacity:1;fill-rule:evenodd;stroke-width:1"/><rect id="rect630" width="5.385" height="5.337" x="383.146" y="150.92" transform="matrix(0.9703261,-0.24180003,0.2919901,0.95642134,0,0)" style="font-size:12px;fill:#d9dcd9;fill-opacity:1;fill-rule:evenodd;stroke-width:1"/><rect id="rect631" width="5.385" height="5.337" x="137.619" y="290.022" transform="matrix(0.9703261,-0.24180003,0.2919901,0.95642134,0,0)" style="font-size:12px;fill:#d9dcd9;fill-opacity:1;fill-rule:evenodd;stroke-width:1"/><rect id="rect632" width="5.385" height="5.337" x="242.791" y="184.251" transform="matrix(0.99694843,0.078063,-0.02605218,0.99966058,0,0)" style="font-size:12px;fill:#d9dcd9;fill-opacity:1;fill-rule:evenodd;stroke-width:1"/><rect id="rect633" width="5.385" height="5.337" x="286.456" y="259.107" transform="matrix(0.99694842,0.07806306,-0.02605216,0.99966058,0,0)" style="font-size:12px;fill:#d9dcd9;fill-opacity:1;fill-rule:evenodd;stroke-width:1"/><rect id="rect634" width="5.385" height="5.337" x="89.865" y="71.548" transform="matrix(0.99694843,0.07806303,-0.02605217,0.99966058,0,0)" style="font-size:12px;fill:#d9dcd9;fill-opacity:1;fill-rule:evenodd;stroke-width:1"/><rect id="rect635" width="5.385" height="5.337" x="438.98" y="239.659" transform="matrix(0.99694843,0.07806303,-0.02605217,0.99966058,0,0)" style="font-size:12px;fill:#d9dcd9;fill-opacity:1;fill-rule:evenodd;stroke-width:1"/><rect id="rect636" width="5.385" height="5.337" x="235.803" y="406.258" transform="matrix(0.99694842,0.07806306,-0.02605216,0.99966058,0,0)" style="font-size:12px;fill:#d9dcd9;fill-opacity:1;fill-rule:evenodd;stroke-width:1"/><rect id="rect637" width="5.385" height="5.337" x="111.166" y="352.799" transform="matrix(0.99694843,0.07806303,-0.02605217,0.99966058,0,0)" style="font-size:12px;fill:#d9dcd9;fill-opacity:1;fill-rule:evenodd;stroke-width:1"/><rect id="rect638" width="5.385" height="5.337" x="7.428" y="186.978" transform="matrix(0.99694842,0.07806306,-0.02605216,0.99966058,0,0)" style="font-size:12px;fill:#d9dcd9;fill-opacity:1;fill-rule:evenodd;stroke-width:1"/><rect id="rect639" width="5.385" height="5.337" x="273.161" y="100.715" transform="matrix(0.99694843,0.07806303,-0.02605217,0.99966058,0,0)" style="font-size:12px;fill:#d9dcd9;fill-opacity:1;fill-rule:evenodd;stroke-width:1"/><rect id="rect640" width="5.385" height="5.337" x="271.317" y="30.131" transform="matrix(0.99694843,0.07806303,-0.02605217,0.99966058,0,0)" style="font-size:12px;fill:#d9dcd9;fill-opacity:1;fill-rule:evenodd;stroke-width:1"/><rect id="rect641" width="5.385" height="5.337" x="431.064" y="92.443" transform="matrix(0.99694843,0.07806303,-0.02605217,0.99966058,0,0)" style="font-size:12px;fill:#d9dcd9;fill-opacity:1;fill-rule:evenodd;stroke-width:1"/><rect id="rect642" width="5.385" height="5.337" x="375.278" y="-17.99" transform="matrix(0.99694843,0.07806303,-0.02605217,0.99966058,0,0)" style="font-size:12px;fill:#d9dcd9;fill-opacity:1;fill-rule:evenodd;stroke-width:1"/><rect id="rect643" width="5.385" height="5.337" x="400.282" y="293.699" transform="matrix(0.99694843,0.07806303,-0.02605217,0.99966058,0,0)" style="font-size:12px;fill:#d9dcd9;fill-opacity:1;fill-rule:evenodd;stroke-width:1"/><rect id="rect644" width="5.385" height="5.337" x="175.681" y="419.07" transform="matrix(0.99694843,0.07806303,-0.02605217,0.99966058,0,0)" style="font-size:12px;fill:#d9dcd9;fill-opacity:1;fill-rule:evenodd;stroke-width:1"/><rect id="rect645" width="5.385" height="5.337" x="49.165" y="249.229" transform="matrix(0.99694843,0.07806303,-0.02605217,0.99966058,0,0)" style="font-size:12px;fill:#d9dcd9;fill-opacity:1;fill-rule:evenodd;stroke-width:1"/><rect id="rect646" width="5.385" height="5.337" x="-13.954" y="-273.708" transform="matrix(-0.74451675,0.66760378,-0.70545887,-0.70875087,0,0)" style="font-size:12px;fill:#d9dcd9;fill-opacity:1;fill-rule:evenodd;stroke-width:1"/><rect id="rect647" width="5.385" height="5.337" x="149.578" y="-192.445" transform="matrix(-0.74451675,0.66760378,-0.70545887,-0.70875087,0,0)" style="font-size:12px;fill:#d9dcd9;fill-opacity:1;fill-rule:evenodd;stroke-width:1"/><rect id="rect648" width="5.385" height="5.337" x="203.862" y="-321.207" transform="matrix(-0.74451675,0.66760378,-0.70545887,-0.70875087,0,0)" style="font-size:12px;fill:#d9dcd9;fill-opacity:1;fill-rule:evenodd;stroke-width:1"/><rect id="rect649" width="5.385" height="5.337" x="72.862" y="-355.472" transform="matrix(-0.74451675,0.66760378,-0.70545887,-0.70875087,0,0)" style="font-size:12px;fill:#d9dcd9;fill-opacity:1;fill-rule:evenodd;stroke-width:1"/><rect id="rect650" width="5.385" height="5.337" x="21.588" y="-519.883" transform="matrix(-0.74451675,0.66760378,-0.70545887,-0.70875087,0,0)" style="font-size:12px;fill:#d9dcd9;fill-opacity:1;fill-rule:evenodd;stroke-width:1"/><rect id="rect651" width="5.385" height="5.337" x="-230.409" y="-346.765" transform="matrix(-0.74451675,0.66760378,-0.70545887,-0.70875087,0,0)" style="font-size:12px;fill:#d9dcd9;fill-opacity:1;fill-rule:evenodd;stroke-width:1"/><rect id="rect652" width="5.385" height="5.337" x="-162.15" y="-466.451" transform="matrix(-0.74451675,0.66760378,-0.70545887,-0.70875087,0,0)" style="font-size:12px;fill:#d9dcd9;fill-opacity:1;fill-rule:evenodd;stroke-width:1"/><rect id="rect653" width="5.385" height="5.337" x="128.707" y="-518.742" transform="matrix(-0.74451675,0.66760378,-0.70545887,-0.70875087,0,0)" style="font-size:12px;fill:#d9dcd9;fill-opacity:1;fill-rule:evenodd;stroke-width:1"/><rect id="rect654" width="5.385" height="5.337" x="100.433" y="-147.973" transform="matrix(-0.74451675,0.66760378,-0.70545887,-0.70875087,0,0)" style="font-size:12px;fill:#d9dcd9;fill-opacity:1;fill-rule:evenodd;stroke-width:1"/><rect id="rect657" width="5.025" height="4.985" x="177.191" y="134.84" style="font-size:12px;fill:#d9dcd9;fill-opacity:1;fill-rule:evenodd;stroke-width:1"/><rect id="rect658" width="5.025" height="4.985" x="143.441" y="398.59" style="font-size:12px;fill:#d9dcd9;fill-opacity:1;fill-rule:evenodd;stroke-width:1"/><rect id="rect659" width="5.025" height="4.985" x="245.316" y="97.339" style="font-size:12px;fill:#d9dcd9;fill-opacity:1;fill-rule:evenodd;stroke-width:1"/><rect id="rect660" width="5.025" height="4.985" x="365.316" y="295.465" style="font-size:12px;fill:#d9dcd9;fill-opacity:1;fill-rule:evenodd;stroke-width:1"/><rect id="rect661" width="5.025" height="4.985" x="270.316" y="247.965" style="font-size:12px;fill:#d9dcd9;fill-opacity:1;fill-rule:evenodd;stroke-width:1"/><rect id="rect662" width="5.025" height="4.985" x="445.316" y="166.089" style="font-size:12px;fill:#d9dcd9;fill-opacity:1;fill-rule:evenodd;stroke-width:1"/><rect id="rect663" width="5.025" height="4.985" x="375.316" y="42.964" style="font-size:12px;fill:#d9dcd9;fill-opacity:1;fill-rule:evenodd;stroke-width:1"/><rect id="rect664" width="5.025" height="4.985" x="382.191" y="373.59" style="font-size:12px;fill:#d9dcd9;fill-opacity:1;fill-rule:evenodd;stroke-width:1"/><rect id="rect665" width="5.025" height="4.985" x="284.691" y="421.715" style="font-size:12px;fill:#d9dcd9;fill-opacity:1;fill-rule:evenodd;stroke-width:1"/><rect id="rect666" width="5.025" height="4.985" x="217.191" y="290.465" style="font-size:12px;fill:#d9dcd9;fill-opacity:1;fill-rule:evenodd;stroke-width:1"/><rect id="rect667" width="5.025" height="4.985" x="70.941" y="321.715" style="font-size:12px;fill:#d9dcd9;fill-opacity:1;fill-rule:evenodd;stroke-width:1"/><rect id="rect668" width="5.025" height="4.985" x="437.937" y="325.759" style="font-size:12px;fill:#d9dcd9;fill-opacity:1;fill-rule:evenodd;stroke-width:1"/><path id="path613-6" d="m 448.85968,313.10672 c -3.2074,0.1919 -40.8584,-3.8389 -64.7278,-10.3943 -26.0266,-6.701 -119.4804,-38.8808 -146.3687,-66.5216 -17.68991,-21.09067 3.94018,-14.05098 -12.4231,-44.8427 -10.7368,-10.7079 -25.4197,-25.8163 -27.6129,-28.9568 -11.6523,-18.8342 -15.4809,-38.6826 -34.5224,-56.7924 -26.024,-22.982714 -61.6105,-28.724314 -94.154297,-10.414614 -30.4955,18.386114 -54.7611,66.474014 -46.71702,108.186814 8.54299,59.7648 38.96372,117.3563 64.74812,154.0843 15.418897,24.2158 37.937297,35.8265 61.759597,51.3491 50.71,30.7158 89.5959,26.852 108.7166,25.6929 19.1207,-1.0142 54.3901,-11.8832 76.1231,-28.2554 26.0245,-20.5476 47.9922,-44.138 66.0479,-72.2198 13.7969,-17.666 27.3038,-64.1644 29.9444,-99.5064 3.3613,-25.3652 11.9384,-79.2732 5.7372,-121.3003 -5.9512,-42.747884 -48.4135,-102.157604 -92.6145,-99.990854 -31.1575,3.88626 -54.7809,23.99964 -67.2482,39.7667 -15.0098,19.35928 -14.9515,69.289454 -23.7313,99.804754 -2.8661,13.4735 -17.9471,29.1937 -22.9871,39.0116 -12.5865,25.3379 10.557,23.7827 6.8597,34.9396 -6.8708,21.9695 -30.6925,80.4814 -53.9387,135.2737 -23.0769,55.3695 -40.1795,56.6893 -61.5499,73.206" style="fill:none;stroke:#fff;stroke-width:6.4000001;stroke-linecap:round;stroke-linejoin:miter;stroke-miterlimit:4;stroke-dasharray:none;stroke-opacity:.51612902;filter:url(#filter4410)"/></g></svg>